<svg xmlns="http://www.w3.org/2000/svg" xmlns:xlink="http://www.w3.org/1999/xlink" width="1080" zoomAndPan="magnify" viewBox="0 0 810 809.999993" height="1080" preserveAspectRatio="xMidYMid meet" version="1.0"><defs><clipPath id="267f9a9053"><path d="M 13.398438 70 L 789 70 L 789 724 L 13.398438 724 Z M 13.398438 70 " clip-rule="nonzero"/></clipPath></defs><g clip-path="url(#267f9a9053)"><path fill="#0072ff" d="M 738.699219 72.761719 L 29.867188 349.527344 C 28.625 350.019531 27.425781 350.601562 26.273438 351.277344 C 25.121094 351.957031 24.03125 352.714844 22.996094 353.5625 C 21.960938 354.410156 21 355.328125 20.105469 356.324219 C 19.214844 357.320312 18.40625 358.378906 17.679688 359.5 C 16.949219 360.617188 16.3125 361.789062 15.765625 363.007812 C 15.222656 364.226562 14.773438 365.480469 14.417969 366.769531 C 14.066406 368.058594 13.816406 369.367188 13.667969 370.695312 C 13.519531 372.023438 13.472656 373.355469 13.527344 374.6875 C 13.585938 376.023438 13.742188 377.347656 14.003906 378.65625 C 14.265625 379.96875 14.628906 381.25 15.089844 382.503906 C 15.546875 383.757812 16.101562 384.96875 16.75 386.136719 C 17.398438 387.304688 18.132812 388.417969 18.953125 389.472656 C 19.773438 390.527344 20.667969 391.511719 21.640625 392.429688 C 22.613281 393.34375 23.652344 394.179688 24.753906 394.9375 C 25.855469 395.691406 27.011719 396.359375 28.214844 396.933594 C 29.421875 397.511719 30.664062 397.992188 31.941406 398.375 L 165.628906 437.398438 C 169.191406 438.449219 172.675781 439.710938 176.085938 441.191406 C 179.492188 442.667969 182.800781 444.347656 186 446.230469 C 189.203125 448.113281 192.28125 450.183594 195.230469 452.441406 C 198.175781 454.703125 200.976562 457.132812 203.628906 459.734375 C 206.277344 462.335938 208.761719 465.09375 211.074219 468 C 213.386719 470.90625 215.515625 473.941406 217.453125 477.109375 C 219.394531 480.277344 221.136719 483.550781 222.675781 486.933594 C 224.214844 490.3125 225.542969 493.773438 226.65625 497.320312 L 279.382812 664.484375 C 279.582031 665.121094 279.800781 665.746094 280.039062 666.371094 C 280.277344 666.992188 280.535156 667.605469 280.8125 668.207031 C 281.089844 668.8125 281.386719 669.40625 281.703125 669.992188 C 282.019531 670.578125 282.355469 671.152344 282.710938 671.71875 C 283.0625 672.28125 283.4375 672.832031 283.824219 673.371094 C 284.214844 673.914062 284.621094 674.4375 285.042969 674.953125 C 285.46875 675.464844 285.90625 675.964844 286.363281 676.449219 C 286.820312 676.933594 287.289062 677.40625 287.777344 677.859375 C 288.261719 678.3125 288.765625 678.75 289.277344 679.171875 C 289.792969 679.597656 290.320312 680 290.863281 680.390625 C 291.402344 680.777344 291.953125 681.148438 292.519531 681.5 C 293.085938 681.851562 293.660156 682.183594 294.246094 682.5 C 294.832031 682.816406 295.429688 683.109375 296.035156 683.386719 C 296.640625 683.664062 297.253906 683.917969 297.875 684.15625 C 298.496094 684.394531 299.125 684.609375 299.761719 684.804688 C 300.398438 685 301.039062 685.175781 301.6875 685.332031 C 302.335938 685.484375 302.988281 685.617188 303.644531 685.730469 C 304.300781 685.84375 304.957031 685.933594 305.621094 686.003906 C 306.28125 686.074219 306.945312 686.121094 307.609375 686.148438 C 308.277344 686.175781 308.941406 686.179688 309.605469 686.164062 C 310.273438 686.148438 310.9375 686.109375 311.597656 686.050781 C 312.261719 685.992188 312.921875 685.910156 313.578125 685.808594 C 314.238281 685.707031 314.890625 685.585938 315.542969 685.441406 C 316.191406 685.296875 316.835938 685.128906 317.472656 684.945312 C 318.113281 684.757812 318.746094 684.550781 319.371094 684.324219 C 319.996094 684.097656 320.613281 683.851562 321.226562 683.585938 C 321.835938 683.316406 322.433594 683.03125 323.027344 682.726562 C 323.617188 682.417969 324.199219 682.09375 324.769531 681.753906 C 325.339844 681.410156 325.898438 681.046875 326.445312 680.667969 C 326.992188 680.289062 327.523438 679.890625 328.046875 679.476562 C 328.566406 679.0625 329.074219 678.632812 329.566406 678.1875 C 330.0625 677.738281 330.539062 677.277344 331.003906 676.800781 L 403.519531 602.765625 C 404.226562 602.039062 404.964844 601.347656 405.734375 600.6875 C 406.503906 600.027344 407.304688 599.40625 408.128906 598.816406 C 408.957031 598.226562 409.804688 597.679688 410.679688 597.167969 C 411.554688 596.65625 412.453125 596.183594 413.371094 595.753906 C 414.289062 595.320312 415.222656 594.933594 416.175781 594.585938 C 417.128906 594.238281 418.09375 593.933594 419.074219 593.671875 C 420.054688 593.410156 421.042969 593.195312 422.042969 593.023438 C 423.042969 592.851562 424.046875 592.722656 425.054688 592.644531 C 426.066406 592.5625 427.078125 592.523438 428.09375 592.535156 C 429.105469 592.542969 430.117188 592.597656 431.125 592.695312 C 432.136719 592.796875 433.136719 592.941406 434.132812 593.128906 C 435.128906 593.320312 436.117188 593.554688 437.089844 593.832031 C 438.066406 594.109375 439.027344 594.429688 439.972656 594.792969 C 440.917969 595.160156 441.847656 595.566406 442.757812 596.011719 C 443.664062 596.460938 444.554688 596.945312 445.417969 597.472656 C 446.285156 598 447.125 598.566406 447.941406 599.167969 L 606.953125 715.824219 C 607.589844 716.285156 608.246094 716.726562 608.910156 717.144531 C 609.578125 717.566406 610.257812 717.964844 610.949219 718.34375 C 611.640625 718.722656 612.339844 719.078125 613.054688 719.414062 C 613.769531 719.746094 614.492188 720.058594 615.222656 720.351562 C 615.957031 720.640625 616.699219 720.90625 617.449219 721.152344 C 618.195312 721.394531 618.953125 721.617188 619.714844 721.8125 C 620.480469 722.011719 621.246094 722.183594 622.019531 722.335938 C 622.792969 722.484375 623.570312 722.609375 624.351562 722.710938 C 625.136719 722.8125 625.917969 722.890625 626.703125 722.945312 C 627.492188 722.996094 628.277344 723.027344 629.066406 723.03125 C 629.855469 723.035156 630.640625 723.015625 631.429688 722.972656 C 632.214844 722.925781 633 722.859375 633.78125 722.765625 C 634.566406 722.671875 635.34375 722.554688 636.121094 722.414062 C 636.894531 722.273438 637.664062 722.109375 638.429688 721.917969 C 639.195312 721.730469 639.953125 721.519531 640.707031 721.28125 C 641.457031 721.046875 642.203125 720.789062 642.9375 720.507812 C 643.675781 720.226562 644.402344 719.921875 645.117188 719.59375 C 645.835938 719.265625 646.542969 718.917969 647.238281 718.546875 C 647.933594 718.179688 648.617188 717.785156 649.289062 717.375 C 649.960938 716.960938 650.617188 716.527344 651.261719 716.074219 C 651.90625 715.621094 652.535156 715.148438 653.152344 714.65625 C 653.765625 714.164062 654.367188 713.652344 654.949219 713.121094 C 655.53125 712.59375 656.101562 712.046875 656.648438 711.480469 C 657.199219 710.917969 657.730469 710.335938 658.246094 709.738281 C 658.757812 709.140625 659.253906 708.527344 659.730469 707.898438 C 660.207031 707.269531 660.660156 706.628906 661.097656 705.972656 C 661.535156 705.316406 661.949219 704.648438 662.34375 703.964844 C 662.738281 703.28125 663.109375 702.589844 663.464844 701.882812 C 663.816406 701.179688 664.144531 700.464844 664.453125 699.738281 C 664.757812 699.011719 665.042969 698.277344 665.304688 697.535156 C 665.566406 696.792969 665.804688 696.039062 666.023438 695.28125 C 666.238281 694.523438 666.429688 693.761719 666.597656 692.992188 L 787.550781 114.414062 C 787.902344 112.8125 788.140625 111.195312 788.273438 109.558594 C 788.40625 107.925781 788.425781 106.289062 788.335938 104.648438 C 788.246094 103.011719 788.046875 101.386719 787.738281 99.777344 C 787.425781 98.167969 787.011719 96.582031 786.488281 95.03125 C 785.964844 93.476562 785.339844 91.960938 784.609375 90.492188 C 783.882812 89.023438 783.058594 87.609375 782.140625 86.25 C 781.222656 84.890625 780.214844 83.601562 779.121094 82.378906 C 778.027344 81.15625 776.855469 80.011719 775.609375 78.949219 C 774.359375 77.882812 773.046875 76.910156 771.667969 76.023438 C 770.285156 75.136719 768.851562 74.347656 767.367188 73.652344 C 765.878906 72.960938 764.351562 72.371094 762.785156 71.882812 C 761.21875 71.398438 759.628906 71.019531 758.011719 70.746094 C 756.390625 70.476562 754.761719 70.316406 753.125 70.265625 C 751.484375 70.214844 749.847656 70.273438 748.21875 70.445312 C 746.585938 70.613281 744.972656 70.894531 743.378906 71.28125 C 741.785156 71.667969 740.226562 72.164062 738.699219 72.761719 Z M 650.542969 197.304688 L 411.40625 409.167969 C 408.046875 412.078125 404.980469 415.273438 402.210938 418.753906 C 399.441406 422.230469 397.015625 425.933594 394.933594 429.863281 C 392.851562 433.792969 391.148438 437.878906 389.820312 442.121094 C 388.496094 446.367188 387.574219 450.695312 387.050781 455.113281 C 386.929688 456.03125 386.734375 456.933594 386.464844 457.816406 C 386.191406 458.703125 385.847656 459.558594 385.433594 460.386719 C 385.015625 461.214844 384.535156 462 383.984375 462.746094 C 383.4375 463.492188 382.828125 464.1875 382.164062 464.832031 C 381.496094 465.476562 380.78125 466.058594 380.019531 466.582031 C 379.253906 467.105469 378.449219 467.558594 377.609375 467.949219 C 376.769531 468.335938 375.898438 468.648438 375.003906 468.890625 C 374.109375 469.132812 373.203125 469.296875 372.28125 469.382812 C 371.359375 469.472656 370.4375 469.480469 369.511719 469.414062 C 368.589844 469.34375 367.675781 469.199219 366.777344 468.980469 C 365.878906 468.757812 365.003906 468.460938 364.15625 468.09375 C 363.304688 467.722656 362.492188 467.285156 361.71875 466.777344 C 360.941406 466.273438 360.214844 465.707031 359.535156 465.074219 C 358.855469 464.445312 358.230469 463.765625 357.667969 463.03125 C 357.101562 462.296875 356.601562 461.519531 356.167969 460.703125 C 355.734375 459.882812 355.375 459.035156 355.082031 458.15625 L 344.148438 423.144531 C 343.679688 421.621094 343.273438 420.082031 342.929688 418.527344 C 342.582031 416.96875 342.304688 415.402344 342.089844 413.824219 C 341.875 412.242188 341.726562 410.65625 341.640625 409.066406 C 341.554688 407.476562 341.535156 405.882812 341.582031 404.289062 C 341.628906 402.695312 341.742188 401.105469 341.917969 399.523438 C 342.097656 397.9375 342.335938 396.363281 342.644531 394.800781 C 342.953125 393.234375 343.320312 391.6875 343.753906 390.152344 C 344.191406 388.621094 344.6875 387.105469 345.246094 385.613281 C 345.804688 384.121094 346.421875 382.652344 347.101562 381.210938 C 347.78125 379.769531 348.519531 378.359375 349.316406 376.976562 C 350.109375 375.597656 350.960938 374.25 351.867188 372.9375 C 352.773438 371.628906 353.734375 370.355469 354.742188 369.121094 C 355.753906 367.890625 356.816406 366.703125 357.921875 365.554688 C 359.03125 364.410156 360.1875 363.3125 361.386719 362.261719 C 362.585938 361.214844 363.824219 360.214844 365.105469 359.265625 C 366.386719 358.316406 367.707031 357.421875 369.058594 356.582031 L 642.519531 187.203125 C 643.21875 186.898438 643.953125 186.722656 644.714844 186.671875 C 645.480469 186.617188 646.230469 186.695312 646.964844 186.902344 C 647.703125 187.113281 648.382812 187.4375 649.007812 187.878906 C 649.632812 188.320312 650.164062 188.855469 650.601562 189.484375 C 651.042969 190.109375 651.363281 190.792969 651.566406 191.53125 C 651.769531 192.265625 651.84375 193.015625 651.789062 193.78125 C 651.734375 194.542969 651.550781 195.273438 651.242188 195.976562 C 650.933594 196.675781 650.515625 197.304688 649.992188 197.859375 Z M 650.542969 197.304688 " fill-opacity="1" fill-rule="nonzero"/></g></svg>